# xmcd
#
# Track frame offsets:
#	182
#	13232
#	25337
#	44970
#	64795
#	79012
#	96547
#	115820
#	135270
#	148482
#	160307
#	169895
#	179475
#	193542
#	207345
#	219515
#	236845
#	250715
#
# Disc length: 3540 seconds
#
# Revision: 0
# Processed by: cddbd v1.4PL0 Copyright (c) Steve Scherf et al.
# Submitted via: dBpowerAMP V4.0
#
DISCID=130dd212
DTITLE=Various Artist - The Country Greats Volume 2
DYEAR=1995
DGENRE=Country
TTITLE0=Ruby Don't take Your Love To Town
TTITLE1=Reuben James
TTITLE2=Something's Burning
TTITLE3=Coward Of The County
TTITLE4=Daytime Friends
TTITLE5=Lady
TTITLE6=Ode To Billie Joe
TTITLE7=Fancy
TTITLE8=I'll Never Fall In Love Again
TTITLE9=All I Have To Do Is Dream
TTITLE10=Son Of A preacher Man
TTITLE11=Let It Be Me
TTITLE12=I Will Always Love You
TTITLE13=Two Doors Down
TTITLE14=The Bargain Store
TTITLE15=Great Balls Of Fire
TTITLE16=The Seeker
TTITLE17=But You Know I LOve You
EXTD=
EXTT0=
EXTT1=
EXTT2=
EXTT3=
EXTT4=
EXTT5=
EXTT6=
EXTT7=
EXTT8=
EXTT9=
EXTT10=
EXTT11=
EXTT12=
EXTT13=
EXTT14=
EXTT15=
EXTT16=
EXTT17=
PLAYORDER=
